<svg width="230" height="257" viewBox="0 0 230 257" fill="none" xmlns="http://www.w3.org/2000/svg">
<path d="M80.5002 206.704L96.5283 191.033L65.7042 164.385L38.8589 190.627C31.6406 197.669 30.8397 208.863 36.9645 216.844L61.6073 248.969C65.6631 254.239 71.8239 257 78.0359 257C82.3202 257 86.6506 255.69 90.3419 252.984C99.4239 246.333 101.252 233.745 94.4491 224.875L80.5002 206.704ZM115 79.8607C137.718 79.8607 156.066 61.9159 156.066 40.1562C156.066 18.3966 137.744 0 115 0C92.2569 0 73.9288 17.9448 73.9288 39.7045C73.9288 61.4642 92.3082 79.8607 115 79.8607ZM209.824 72.7832C203.278 63.6878 190.505 61.5495 181.197 67.8892L160.338 82.1948C133.318 100.767 96.6259 100.767 69.5701 82.1948L48.7109 67.8892C39.4493 61.5395 26.6812 63.748 20.1355 72.7832C13.6513 81.8686 15.9 94.3672 25.141 100.792L46.0002 115.098C52.2122 119.314 58.8864 122.627 65.7145 125.589V144.562H164.286L164.286 125.634C171.089 122.689 177.747 119.369 183.97 115.073L204.829 100.767C214.136 94.3672 216.344 81.8686 209.824 72.7832ZM164.286 164.339L133.462 190.988L149.49 206.659L135.536 224.875C128.733 233.745 130.562 246.333 139.643 252.984C143.339 255.695 147.652 257 151.502 257C157.745 257 163.921 254.231 167.946 248.969L192.589 216.844C198.719 208.853 197.918 197.669 190.68 190.602L164.286 164.339Z" fill="#C0C0C0"/>
</svg>
