<svg width="140" height="185" viewBox="0 0 140 185" fill="none" xmlns="http://www.w3.org/2000/svg">
<path d="M70.103 52.0313C84.0362 52.0313 95.3406 40.3785 95.3406 26.0157C95.3406 11.653 84.0538 0 70.103 0C56.1522 0 44.55 11.653 44.55 26.0157C44.55 40.3785 56.1873 52.0313 70.103 52.0313ZM137.088 40.0353C132.219 33.8421 123.396 32.881 117.371 37.9013L99.4066 52.8985C82.876 66.6976 57.309 66.6976 40.7643 52.8985L22.8422 37.9034C16.8307 32.881 7.99055 33.8457 3.12531 40.0353C-1.74694 46.2501 -0.82156 55.3556 5.1969 60.378L23.1401 75.3623C27.2517 78.7935 31.7734 81.5627 36.4529 84.0052L36.1374 173.438C36.1374 179.804 41.1779 185 47.3541 185H52.647C58.8232 185 63.8637 179.804 63.8637 173.438V132.969H75.0804V173.438C75.0804 179.804 80.1209 185 86.2971 185H91.59C97.7662 185 102.807 179.804 102.807 173.438L102.807 84.0089C107.486 81.5677 112.008 78.7985 116.116 75.3695L134.063 60.3852C141.014 55.3556 141.644 46.2501 137.088 40.0353Z" fill="#C0C0C0"/>
</svg>
