<svg width="65" height="58" viewBox="0 0 65 58" fill="none" xmlns="http://www.w3.org/2000/svg">
<g clip-path="url(#clip0_339_136)">
<path d="M31.6389 16.7307L10.8333 33.8666V52.3611C10.8333 52.84 11.0235 53.2992 11.3621 53.6378C11.7008 53.9764 12.16 54.1667 12.6389 54.1667L25.2845 54.1339C25.7618 54.1315 26.2187 53.9403 26.5554 53.6019C26.892 53.2636 27.081 52.8057 27.081 52.3284V41.5278C27.081 41.0489 27.2713 40.5896 27.6099 40.251C27.9485 39.9124 28.4077 39.7222 28.8866 39.7222H36.1088C36.5877 39.7222 37.0469 39.9124 37.3855 40.251C37.7241 40.5896 37.9143 41.0489 37.9143 41.5278V52.3205C37.9136 52.5581 37.9598 52.7935 38.0502 53.0132C38.1406 53.2329 38.2734 53.4326 38.4412 53.6008C38.6089 53.7691 38.8082 53.9026 39.0276 53.9937C39.2471 54.0848 39.4823 54.1317 39.7199 54.1317L52.361 54.1667C52.8399 54.1667 53.2991 53.9764 53.6377 53.6378C53.9763 53.2992 54.1666 52.84 54.1666 52.3611V33.8541L33.3655 16.7307C33.1209 16.5336 32.8163 16.4261 32.5022 16.4261C32.1881 16.4261 31.8835 16.5336 31.6389 16.7307ZM64.5034 28.3777L55.0693 20.6013V4.97087C55.0693 4.61172 54.9267 4.26728 54.6727 4.01333C54.4188 3.75937 54.0743 3.6167 53.7152 3.6167H47.3957C47.0366 3.6167 46.6922 3.75937 46.4382 4.01333C46.1843 4.26728 46.0416 4.61172 46.0416 4.97087V13.1647L35.9384 4.85238C34.9688 4.05452 33.7522 3.61829 32.4966 3.61829C31.2409 3.61829 30.0243 4.05452 29.0547 4.85238L0.489754 28.3777C0.35263 28.491 0.239183 28.6302 0.155893 28.7874C0.0726024 28.9446 0.0211022 29.1167 0.00433474 29.2938C-0.0124328 29.4709 0.005861 29.6496 0.0581707 29.8196C0.11048 29.9897 0.195781 30.1477 0.309198 30.2848L3.1868 33.783C3.29991 33.9206 3.43903 34.0345 3.5962 34.1182C3.75338 34.2019 3.92552 34.2537 4.10277 34.2708C4.28002 34.2879 4.4589 34.2699 4.62916 34.2177C4.79943 34.1656 4.95774 34.0804 5.09504 33.967L31.6389 12.1039C31.8835 11.9068 32.1881 11.7993 32.5022 11.7993C32.8163 11.7993 33.1209 11.9068 33.3655 12.1039L59.9105 33.967C60.0475 34.0804 60.2056 34.1657 60.3756 34.218C60.5457 34.2703 60.7243 34.2886 60.9015 34.2719C61.0786 34.2551 61.2506 34.2036 61.4078 34.1203C61.565 34.037 61.7043 33.9236 61.8176 33.7864L64.6952 30.2882C64.8085 30.1503 64.8934 29.9914 64.9451 29.8207C64.9968 29.6499 65.0143 29.4706 64.9964 29.293C64.9786 29.1155 64.9259 28.9432 64.8412 28.7861C64.7566 28.629 64.6418 28.4902 64.5034 28.3777Z" fill="#B3B3B3"/>
</g>
<defs>
<clipPath id="clip0_339_136">
<rect width="65" height="57.7778" fill="white"/>
</clipPath>
</defs>
</svg>
