<svg width="173" height="282" viewBox="0 0 173 282" fill="none" xmlns="http://www.w3.org/2000/svg">
<path d="M170.351 149.262L132.204 87.5191C125.858 76.7238 114.883 70.5 102.881 70.5H70.1191C58.1064 70.5 47.1263 76.6963 40.7739 87.073L2.63446 149.262C-2.4339 157.512 0.0329739 168.385 8.12721 173.546C16.2366 178.709 26.9139 176.196 31.9634 167.933L47.5766 142.498L47.0884 264.375C47.0884 274.107 54.8356 282 64.3884 282C73.9413 282 81.2019 274.107 81.2019 264.375V185.062H89.8519V264.375C89.8519 274.107 97.599 282 107.152 282C116.705 282 124.452 274.107 124.452 264.375V142.542L140.065 167.988C144.293 173.331 149.969 176.25 155.7 176.25C158.825 176.25 162.004 175.39 164.858 173.574C172.946 168.429 175.433 157.523 170.351 149.262ZM86.5 52.875C100.827 52.875 112.45 41.0332 112.45 26.4375C112.45 11.8418 100.827 0 86.5 0C72.1734 0 60.55 11.8418 60.55 26.4375C60.55 41.0332 72.1734 52.875 86.5 52.875Z" fill="#C0C0C0"/>
</svg>
