<svg width="165" height="247" viewBox="0 0 165 247" fill="none" xmlns="http://www.w3.org/2000/svg">
<path d="M162.473 130.736L126.091 76.6568C120.037 67.2014 109.57 61.75 98.1234 61.75H66.8766C55.4194 61.75 44.947 67.1772 38.8884 76.2661L2.51264 130.736C-2.32135 137.963 0.0314491 147.486 7.75139 152.006C15.4858 156.529 25.6694 154.328 30.4853 147.09L45.3765 124.812L44.9109 231.562C44.9109 240.087 52.2998 247 61.4109 247C70.522 247 77.4469 240.087 77.4469 231.562V162.094H85.6969V231.562C85.6969 240.087 93.0858 247 102.197 247C111.308 247 118.697 240.087 118.697 231.562V124.851L133.588 147.139C137.62 151.818 143.034 154.375 148.5 154.375C151.481 154.375 154.512 153.621 157.235 152.031C164.948 147.525 167.32 137.973 162.473 130.736ZM82.5 46.3125C96.1641 46.3125 107.25 35.9404 107.25 23.1562C107.25 10.3721 96.1641 0 82.5 0C68.8359 0 57.75 10.3721 57.75 23.1562C57.75 35.9404 68.8359 46.3125 82.5 46.3125Z" fill="#C0C0C0"/>
</svg>
